# xmcd
#
# Track frame offsets:
#	150
#	24391
#	49902
#	68325
#	89597
#	102966
#	121467
#	141579
#	191734
#
# Disc length: 2831 seconds
#
# Revision: 0
# Processed by: cddbd v1.4PL0 Copyright (c) Steve Scherf et al.
# Submitted via: dBpowerAMP V4.0
#
DISCID=7f0b0d09
DTITLE=Various Artist - Ravanaprabhu
DYEAR=2001
DGENRE=
TTITLE0=Ariyaathe Ariyaathe
TTITLE1=Akilu Pukilu
TTITLE2=Aakasha Deepangal
TTITLE3=Aattoram
TTITLE4=Vande Mukunda
TTITLE5=Aakasha Deepangal
TTITLE6=Pottu Kuthedi
TTITLE7=Ariyaathe Ariyaathe
TTITLE8=Iniyaarkkum
EXTD=This is the CD containing Music from the Malayalam Movie "Ravana Prabu"
EXTT0=
EXTT1=
EXTT2=
EXTT3=
EXTT4=
EXTT5=
EXTT6=
EXTT7=
EXTT8=
PLAYORDER=
